<svg xmlns="http://www.w3.org/2000/svg" viewBox="0 0 240 240" fill="none">
  <defs>
    <linearGradient id="bg" x1="22" y1="18" x2="214" y2="220" gradientUnits="userSpaceOnUse">
      <stop stop-color="#0D1118" />
      <stop offset="1" stop-color="#07090E" />
    </linearGradient>
    <linearGradient id="rise" x1="58" y1="150" x2="178" y2="82" gradientUnits="userSpaceOnUse">
      <stop stop-color="#E8EEF9" />
      <stop offset="1" stop-color="#4DE3B2" />
    </linearGradient>
  </defs>

  <rect x="18" y="18" width="204" height="204" rx="34" fill="url(#bg)" stroke="#354055" stroke-width="2" />
  <rect x="42" y="46" width="156" height="148" rx="24" fill="#10151E" stroke="#263144" stroke-width="1.5" />
  <path d="M60 160H182" stroke="#263144" stroke-width="1.2" opacity=".75" />
  <path d="M60 134H182" stroke="#263144" stroke-width="1.2" opacity=".45" />
  <path d="M60 108H182" stroke="#263144" stroke-width="1.2" opacity=".3" />

  <path d="M72 149v-24" stroke="#E8EEF9" stroke-width="3" stroke-linecap="round" />
  <rect x="66" y="117" width="12" height="20" rx="3" fill="#E8EEF9" />
  <path d="M72 116v-11" stroke="#E8EEF9" stroke-width="2" stroke-linecap="round" opacity=".85" />

  <path d="M112 149v-44" stroke="#4DE3B2" stroke-width="3" stroke-linecap="round" />
  <rect x="106" y="94" width="12" height="30" rx="3" fill="#4DE3B2" />
  <path d="M112 93v-9" stroke="#4DE3B2" stroke-width="2" stroke-linecap="round" opacity=".85" />

  <path d="M152 149v-18" stroke="#FF6B6B" stroke-width="3" stroke-linecap="round" />
  <rect x="146" y="121" width="12" height="12" rx="3" fill="#FF6B6B" />
  <path d="M152 120v-8" stroke="#FF6B6B" stroke-width="2" stroke-linecap="round" opacity=".85" />

  <path d="M66 149C90 128 106 138 124 118C140 101 156 90 174 84" stroke="url(#rise)" stroke-width="3.2" stroke-linecap="round" stroke-linejoin="round" />
  <circle cx="66" cy="149" r="4" fill="#E8EEF9" />
  <circle cx="124" cy="118" r="4" fill="#4DE3B2" />
  <circle cx="174" cy="84" r="4" fill="#67A8FF" />
</svg>
