<svg xmlns="http://www.w3.org/2000/svg" viewBox="0 0 240 240" fill="none">
  <defs>
    <linearGradient id="bg" x1="22" y1="18" x2="214" y2="220" gradientUnits="userSpaceOnUse">
      <stop stop-color="#0D1118" />
      <stop offset="1" stop-color="#07090E" />
    </linearGradient>
    <linearGradient id="stack" x1="68" y1="68" x2="170" y2="178" gradientUnits="userSpaceOnUse">
      <stop stop-color="#E8EEF9" />
      <stop offset="1" stop-color="#4DE3B2" />
    </linearGradient>
  </defs>

  <rect x="18" y="18" width="204" height="204" rx="34" fill="url(#bg)" stroke="#354055" stroke-width="2" />
  <rect x="42" y="42" width="156" height="156" rx="28" fill="#0F141D" stroke="#263144" stroke-width="1.5" />
  <path d="M62 154H178" stroke="#263144" stroke-width="1.2" opacity=".4" />
  <path d="M62 124H178" stroke="#263144" stroke-width="1.2" opacity=".2" />
  <path d="M62 94H178" stroke="#263144" stroke-width="1.2" opacity=".12" />

  <path d="M72 154V126" stroke="#67A8FF" stroke-width="8" stroke-linecap="round" />
  <path d="M92 154V112" stroke="#4DE3B2" stroke-width="8" stroke-linecap="round" />
  <path d="M112 154V90" stroke="#E8EEF9" stroke-width="8" stroke-linecap="round" />
  <path d="M132 154V100" stroke="#FF6B6B" stroke-width="8" stroke-linecap="round" />
  <path d="M152 154V118" stroke="#67A8FF" stroke-width="8" stroke-linecap="round" />
  <path d="M172 154V130" stroke="#E8EEF9" stroke-width="8" stroke-linecap="round" />

  <path d="M72 120C88 112 100 118 112 108C124 98 136 88 152 92C162 95 168 102 172 104" stroke="url(#stack)" stroke-width="3" stroke-linecap="round" stroke-linejoin="round" />
  <circle cx="72" cy="120" r="4" fill="#67A8FF" />
  <circle cx="112" cy="108" r="4" fill="#4DE3B2" />
  <circle cx="152" cy="92" r="4" fill="#E8EEF9" />
  <circle cx="172" cy="104" r="4" fill="#FF6B6B" />
</svg>
