<svg width="300" height="220" viewBox="0 0 300 220" fill="none" xmlns="http://www.w3.org/2000/svg">
  <rect x="12" y="12" width="276" height="196" rx="26" fill="#090E1A" fill-opacity="0.95" stroke="#31496D" stroke-width="4"/>
  <path d="M38 176H266" stroke="#9CA3AF" stroke-opacity="0.25" stroke-width="3"/>
  <rect x="44" y="126" width="18" height="50" rx="8" fill="#7EE7C6"/>
  <rect x="72" y="104" width="18" height="72" rx="8" fill="#7EE7C6" fill-opacity="0.9"/>
  <rect x="100" y="88" width="18" height="88" rx="8" fill="#7EE7C6" fill-opacity="0.82"/>
  <rect x="128" y="62" width="18" height="114" rx="8" fill="#8DD4FF"/>
  <rect x="156" y="74" width="18" height="102" rx="8" fill="#FF7A8A"/>
  <rect x="184" y="48" width="18" height="128" rx="8" fill="#F6C667"/>
  <rect x="212" y="82" width="18" height="94" rx="8" fill="#8DD4FF" fill-opacity="0.75"/>
  <rect x="240" y="114" width="18" height="62" rx="8" fill="#7EE7C6" fill-opacity="0.65"/>
  <path d="M38 132C58 118 74 116 94 100C116 82 140 66 164 70C186 73 196 90 216 82C232 75 246 56 266 46" stroke="#F8FAFC" stroke-width="4" stroke-linecap="round" stroke-linejoin="round"/>
  <rect x="22" y="22" width="112" height="28" rx="14" fill="#111827" stroke="#7EE7C6" stroke-opacity="0.5"/>
  <text x="78" y="41" fill="#F8FAFC" font-family="Inter, Arial, sans-serif" font-size="17" font-weight="700" text-anchor="middle">MOMENTUM</text>
</svg>
