<svg xmlns="http://www.w3.org/2000/svg" viewBox="0 0 260 260" fill="none">
  <defs>
    <linearGradient id="bg" x1="24" y1="18" x2="232" y2="240" gradientUnits="userSpaceOnUse">
      <stop stop-color="#0E1218" />
      <stop offset="1" stop-color="#080B10" />
    </linearGradient>
    <linearGradient id="accent" x1="66" y1="92" x2="182" y2="164" gradientUnits="userSpaceOnUse">
      <stop stop-color="#4DE3B2" />
      <stop offset="1" stop-color="#67A8FF" />
    </linearGradient>
  </defs>

  <rect x="18" y="18" width="224" height="224" rx="34" fill="url(#bg)" stroke="#354055" stroke-width="2" />
  <rect x="42" y="42" width="176" height="176" rx="26" fill="#111720" stroke="#263144" stroke-width="1.5" />
  <path d="M60 84H200" stroke="#253041" stroke-width="1.1" opacity=".7" />
  <path d="M60 116H200" stroke="#253041" stroke-width="1.1" opacity=".45" />
  <path d="M60 148H200" stroke="#253041" stroke-width="1.1" opacity=".28" />
  <path d="M60 180H200" stroke="#253041" stroke-width="1.1" opacity=".14" />
  <path d="M82 62V198" stroke="#253041" stroke-width="1.1" opacity=".5" />
  <path d="M116 62V198" stroke="#253041" stroke-width="1.1" opacity=".34" />
  <path d="M150 62V198" stroke="#253041" stroke-width="1.1" opacity=".18" />
  <path d="M184 62V198" stroke="#253041" stroke-width="1.1" opacity=".12" />

  <circle cx="130" cy="130" r="46" stroke="#4DE3B2" stroke-opacity=".22" stroke-width="2" />
  <circle cx="130" cy="130" r="28" stroke="#67A8FF" stroke-opacity=".22" stroke-width="2" />
  <path d="M98 154 114 132 128 142 146 114 166 102" stroke="url(#accent)" stroke-width="4" stroke-linecap="round" stroke-linejoin="round" />
  <path d="M94 96h20" stroke="#E8EEF9" stroke-width="3" stroke-linecap="round" opacity=".8" />
  <path d="M94 106h12" stroke="#E8EEF9" stroke-width="3" stroke-linecap="round" opacity=".35" />
  <circle cx="94" cy="96" r="4" fill="#4DE3B2" />
  <circle cx="166" cy="102" r="4" fill="#67A8FF" />
  <circle cx="130" cy="142" r="4" fill="#E8EEF9" />

  <path d="M72 176H96" stroke="#FF6B6B" stroke-width="4" stroke-linecap="round" />
  <path d="M72 176V164" stroke="#FF6B6B" stroke-width="4" stroke-linecap="round" />
  <path d="M184 74h20" stroke="#4DE3B2" stroke-width="4" stroke-linecap="round" />
  <path d="M204 74v12" stroke="#4DE3B2" stroke-width="4" stroke-linecap="round" />
</svg>
